<mxfile host="app.diagrams.net" modified="2021-01-19T01:20:30.315Z" agent="5.0 (Windows NT 10.0; Win64; x64) AppleWebKit/537.36 (KHTML, like Gecko) Chrome/87.0.4280.141 Safari/537.36" etag="zWNu5LLqOCQIUwtNIT77" version="14.2.4" type="github">
  <diagram id="CXvfz8VVL7AI5F-Oacu6" name="Page-1">
    <mxGraphModel dx="599" dy="361" grid="1" gridSize="10" guides="1" tooltips="1" connect="1" arrows="1" fold="1" page="1" pageScale="1" pageWidth="827" pageHeight="1169" math="0" shadow="0">
      <root>
        <mxCell id="0" />
        <mxCell id="1" parent="0" />
        <mxCell id="R32gV54Bt2Fw7gPrxFly-2" style="edgeStyle=orthogonalEdgeStyle;rounded=0;orthogonalLoop=1;jettySize=auto;html=1;" edge="1" parent="1" source="R32gV54Bt2Fw7gPrxFly-1">
          <mxGeometry relative="1" as="geometry">
            <mxPoint x="150" y="190" as="targetPoint" />
          </mxGeometry>
        </mxCell>
        <mxCell id="R32gV54Bt2Fw7gPrxFly-1" value="test box" style="rounded=0;whiteSpace=wrap;html=1;" vertex="1" parent="1">
          <mxGeometry x="80" y="30" width="120" height="50" as="geometry" />
        </mxCell>
        <mxCell id="R32gV54Bt2Fw7gPrxFly-3" value="test box" style="rounded=0;whiteSpace=wrap;html=1;" vertex="1" parent="1">
          <mxGeometry x="20" y="120" width="120" height="50" as="geometry" />
        </mxCell>
        <mxCell id="R32gV54Bt2Fw7gPrxFly-4" value="test box" style="rounded=0;whiteSpace=wrap;html=1;" vertex="1" parent="1">
          <mxGeometry x="414" y="70" width="120" height="50" as="geometry" />
        </mxCell>
        <mxCell id="R32gV54Bt2Fw7gPrxFly-5" value="test box" style="rounded=0;whiteSpace=wrap;html=1;" vertex="1" parent="1">
          <mxGeometry x="260" y="60" width="120" height="50" as="geometry" />
        </mxCell>
        <mxCell id="R32gV54Bt2Fw7gPrxFly-6" value="test box" style="rounded=0;whiteSpace=wrap;html=1;" vertex="1" parent="1">
          <mxGeometry x="220" y="140" width="120" height="50" as="geometry" />
        </mxCell>
      </root>
    </mxGraphModel>
  </diagram>
</mxfile>
